<svg width="63" height="19" viewBox="0 0 63 19" fill="none" xmlns="http://www.w3.org/2000/svg">
<path d="M7.39453 5.32031V7.54688H0.128906V5.32031H7.39453ZM2.07422 2.20312H5.17969V14.3438C5.17969 14.7188 5.23047 15.0078 5.33203 15.2109C5.43359 15.4141 5.58594 15.5508 5.78906 15.6211C5.99219 15.6914 6.23438 15.7266 6.51562 15.7266C6.71875 15.7266 6.90625 15.7148 7.07812 15.6914C7.25 15.668 7.39453 15.6445 7.51172 15.6211L7.52344 17.9414C7.26562 18.0273 6.97266 18.0977 6.64453 18.1523C6.32422 18.207 5.96094 18.2344 5.55469 18.2344C4.85938 18.2344 4.25 18.1172 3.72656 17.8828C3.20312 17.6406 2.79688 17.2539 2.50781 16.7227C2.21875 16.1836 2.07422 15.4727 2.07422 14.5898V2.20312ZM12.7383 5.32031V18H9.63281V5.32031H12.7383ZM9.42188 2.00391C9.42188 1.54297 9.57812 1.16016 9.89062 0.855469C10.2109 0.550781 10.6406 0.398438 11.1797 0.398438C11.7188 0.398438 12.1445 0.550781 12.457 0.855469C12.7773 1.16016 12.9375 1.54297 12.9375 2.00391C12.9375 2.45703 12.7773 2.83594 12.457 3.14062C12.1445 3.44531 11.7188 3.59766 11.1797 3.59766C10.6406 3.59766 10.2109 3.44531 9.89062 3.14062C9.57812 2.83594 9.42188 2.45703 9.42188 2.00391ZM18.7266 8.02734V18H15.6328V5.32031H18.5391L18.7266 8.02734ZM18.2344 11.2031H17.3203C17.3281 10.2812 17.4531 9.44531 17.6953 8.69531C17.9375 7.94531 18.2773 7.30078 18.7148 6.76172C19.1602 6.22266 19.6875 5.80859 20.2969 5.51953C20.9062 5.23047 21.5859 5.08594 22.3359 5.08594C22.9453 5.08594 23.4961 5.17188 23.9883 5.34375C24.4805 5.51562 24.9023 5.78906 25.2539 6.16406C25.6133 6.53906 25.8867 7.03125 26.0742 7.64062C26.2695 8.24219 26.3672 8.98438 26.3672 9.86719V18H23.25V9.84375C23.25 9.26562 23.1641 8.80859 22.9922 8.47266C22.8281 8.13672 22.5859 7.89844 22.2656 7.75781C21.9531 7.61719 21.5664 7.54688 21.1055 7.54688C20.6289 7.54688 20.2109 7.64453 19.8516 7.83984C19.5 8.02734 19.2031 8.28906 18.9609 8.625C18.7266 8.96094 18.5469 9.34766 18.4219 9.78516C18.2969 10.2227 18.2344 10.6953 18.2344 11.2031ZM36.7031 15.3047V0H39.8203V18H37.0078L36.7031 15.3047ZM28.5586 11.8125V11.5664C28.5586 10.5977 28.668 9.71875 28.8867 8.92969C29.1133 8.13281 29.4414 7.44922 29.8711 6.87891C30.3008 6.30859 30.8203 5.86719 31.4297 5.55469C32.0469 5.24219 32.7461 5.08594 33.5273 5.08594C34.2852 5.08594 34.9453 5.23828 35.5078 5.54297C36.0781 5.84766 36.5625 6.28125 36.9609 6.84375C37.3672 7.40625 37.6914 8.07422 37.9336 8.84766C38.1758 9.61328 38.3516 10.457 38.4609 11.3789V12.0469C38.3516 12.9453 38.1758 13.7695 37.9336 14.5195C37.6914 15.2695 37.3672 15.9258 36.9609 16.4883C36.5625 17.043 36.0781 17.4727 35.5078 17.7773C34.9375 18.082 34.2695 18.2344 33.5039 18.2344C32.7305 18.2344 32.0352 18.0742 31.418 17.7539C30.8086 17.4336 30.2891 16.9844 29.8594 16.4062C29.4375 15.8281 29.1133 15.1484 28.8867 14.3672C28.668 13.5859 28.5586 12.7344 28.5586 11.8125ZM31.6641 11.5664V11.8125C31.6641 12.3594 31.7109 12.8711 31.8047 13.3477C31.8984 13.8242 32.0508 14.2461 32.2617 14.6133C32.4727 14.9727 32.7422 15.2539 33.0703 15.457C33.4062 15.6602 33.8125 15.7617 34.2891 15.7617C34.8984 15.7617 35.3984 15.6289 35.7891 15.3633C36.1875 15.0898 36.4961 14.7188 36.7148 14.25C36.9336 13.7734 37.0742 13.2383 37.1367 12.6445V10.8047C37.1055 10.3359 37.0234 9.90234 36.8906 9.50391C36.7656 9.10547 36.5859 8.76172 36.3516 8.47266C36.125 8.18359 35.8438 7.95703 35.5078 7.79297C35.1719 7.62891 34.7734 7.54688 34.3125 7.54688C33.8359 7.54688 33.4297 7.65234 33.0938 7.86328C32.7578 8.06641 32.4844 8.35156 32.2734 8.71875C32.0625 9.08594 31.9062 9.51172 31.8047 9.99609C31.7109 10.4805 31.6641 11.0039 31.6641 11.5664ZM48.3164 18.2344C47.3555 18.2344 46.4922 18.0781 45.7266 17.7656C44.9609 17.4531 44.3086 17.0195 43.7695 16.4648C43.2383 15.9023 42.8281 15.25 42.5391 14.5078C42.2578 13.7578 42.1172 12.9531 42.1172 12.0938V11.625C42.1172 10.6484 42.2578 9.76172 42.5391 8.96484C42.8203 8.16016 43.2188 7.46875 43.7344 6.89062C44.25 6.3125 44.8672 5.86719 45.5859 5.55469C46.3047 5.24219 47.0977 5.08594 47.9648 5.08594C48.8633 5.08594 49.6562 5.23828 50.3438 5.54297C51.0312 5.83984 51.6055 6.26172 52.0664 6.80859C52.5273 7.35547 52.875 8.01172 53.1094 8.77734C53.3438 9.53516 53.4609 10.375 53.4609 11.2969V12.5977H43.5234V10.4648H50.4141V10.2305C50.3984 9.73828 50.3047 9.28906 50.1328 8.88281C49.9609 8.46875 49.6953 8.14062 49.3359 7.89844C48.9766 7.64844 48.5117 7.52344 47.9414 7.52344C47.4805 7.52344 47.0781 7.625 46.7344 7.82812C46.3984 8.02344 46.1172 8.30469 45.8906 8.67188C45.6719 9.03125 45.5078 9.46094 45.3984 9.96094C45.2891 10.4609 45.2344 11.0156 45.2344 11.625V12.0938C45.2344 12.625 45.3047 13.1172 45.4453 13.5703C45.5938 14.0234 45.8086 14.418 46.0898 14.7539C46.3789 15.082 46.7227 15.3398 47.1211 15.5273C47.5273 15.707 47.9883 15.7969 48.5039 15.7969C49.1523 15.7969 49.7383 15.6719 50.2617 15.4219C50.793 15.1641 51.2539 14.7852 51.6445 14.2852L53.2031 15.9023C52.9375 16.293 52.5781 16.668 52.125 17.0273C51.6797 17.3867 51.1406 17.6797 50.5078 17.9062C49.875 18.125 49.1445 18.2344 48.3164 18.2344ZM58.6289 7.91016V18H55.5352V5.32031H58.4648L58.6289 7.91016ZM62.4844 5.23828L62.4375 8.12109C62.2656 8.08984 62.0703 8.06641 61.8516 8.05078C61.6406 8.03516 61.4414 8.02734 61.2539 8.02734C60.7773 8.02734 60.3594 8.09375 60 8.22656C59.6406 8.35156 59.3398 8.53516 59.0977 8.77734C58.8633 9.01953 58.6836 9.31641 58.5586 9.66797C58.4336 10.0117 58.3633 10.4023 58.3477 10.8398L57.6797 10.7578C57.6797 9.95312 57.7617 9.20703 57.9258 8.51953C58.0898 7.83203 58.3281 7.23047 58.6406 6.71484C58.9531 6.19922 59.3438 5.80078 59.8125 5.51953C60.2891 5.23047 60.8359 5.08594 61.4531 5.08594C61.625 5.08594 61.8086 5.10156 62.0039 5.13281C62.207 5.15625 62.3672 5.19141 62.4844 5.23828Z" fill="#151515"/>
</svg>
